<?xml version="1.0" standalone="no"?><!DOCTYPE svg PUBLIC "-//W3C//DTD SVG 1.1//EN" "http://www.w3.org/Graphics/SVG/1.1/DTD/svg11.dtd"><svg t="1598185376151" class="icon" viewBox="0 0 1024 1024" version="1.1" xmlns="http://www.w3.org/2000/svg" p-id="1852" xmlns:xlink="http://www.w3.org/1999/xlink" width="200" height="200"><defs><style type="text/css"></style></defs><path d="M741 894H286a62.07 62.07 0 0 1-62-62V202a62.07 62.07 0 0 1 62-62h397a12 12 0 0 1 0 24H286a38 38 0 0 0-38 38v630a38 38 0 0 0 38 38h455a38 38 0 0 0 38-38V278a12 12 0 0 1 24 0v554a62.07 62.07 0 0 1-62 62z" p-id="1853"></path><path d="M684 383H344a12 12 0 0 1 0-24h340a12 12 0 0 1 0 24zM684 517H344a12 12 0 0 1 0-24h340a12 12 0 0 1 0 24zM684 651H344a12 12 0 0 1 0-24h340a12 12 0 0 1 0 24zM792.33 290H789a12 12 0 0 1-12-12v-3.84a12 12 0 0 1 21.07-7.87l3.33 3.85a12 12 0 0 1-9.07 19.86z" p-id="1854"></path><path d="M739 894H284a62.07 62.07 0 0 1-62-62V202a62.07 62.07 0 0 1 62-62h386a12 12 0 0 1 12 12v76a38 38 0 0 0 38 38h69a12 12 0 0 1 12 12v554a62.07 62.07 0 0 1-62 62zM284 164a38 38 0 0 0-38 38v630a38 38 0 0 0 38 38h455a38 38 0 0 0 38-38V290h-57a62.07 62.07 0 0 1-62-62v-64z" p-id="1855"></path><path d="M789 290h-69a62.07 62.07 0 0 1-62-62v-76a12 12 0 0 1 12-12h13a12 12 0 0 1 9.07 4.14l106 122.15a12 12 0 0 1 2.93 7.87V278a12 12 0 0 1-12 12zM682 169.1V228a38 38 0 0 0 38 38h46z" p-id="1856"></path></svg>