<?xml version="1.0" standalone="no"?><!DOCTYPE svg PUBLIC "-//W3C//DTD SVG 1.1//EN" "http://www.w3.org/Graphics/SVG/1.1/DTD/svg11.dtd"><svg t="1605773089381" class="icon" viewBox="0 0 1026 1024" version="1.1" xmlns="http://www.w3.org/2000/svg" p-id="1049" xmlns:xlink="http://www.w3.org/1999/xlink" width="200.390625" height="200"><defs><style type="text/css"></style></defs><path d="M1015.808 960.512l-175.104-175.104c69.12-82.432 110.592-188.928 110.592-304.64 0-262.656-212.992-475.648-475.648-475.648s-475.648 212.992-475.648 475.648 212.992 475.648 475.648 475.648c121.344 0 232.448-46.08 316.928-120.832l174.08 174.08c13.312 13.312 34.816 13.312 48.64 0s14.336-35.84 0.512-49.152zM476.16 885.76c-224.256 0-404.992-181.248-404.992-404.992s181.248-404.992 404.992-404.992 404.992 181.248 404.992 404.992c0 223.232-180.736 404.992-404.992 404.992z" fill="#1296db" p-id="1050"></path></svg>